<svg id="GD001" height="512" viewBox="0 0 512 512" width="512" xmlns="http://www.w3.org/2000/svg" xmlns:xlink="http://www.w3.org/1999/xlink"><linearGradient id="New_Gradient_Swatch_2" gradientUnits="userSpaceOnUse" x1="256" x2="256" y1="47.603" y2="490.266"><stop offset="0" stop-color="#fc5c7d"/><stop offset=".129" stop-color="#f35e85"/><stop offset=".343" stop-color="#d9659b"/><stop offset=".616" stop-color="#b070bf"/><stop offset=".934" stop-color="#777ff0"/><stop offset="1" stop-color="#6a82fb"/></linearGradient><linearGradient id="New_Gradient_Swatch_2-2" x1="128" x2="128" xlink:href="#New_Gradient_Swatch_2" y1="47.603" y2="490.266"/><linearGradient id="New_Gradient_Swatch_2-9" x1="384" x2="384" xlink:href="#New_Gradient_Swatch_2" y1="47.603" y2="490.266"/><linearGradient id="New_Gradient_Swatch_2-15" x1="264" x2="264" xlink:href="#New_Gradient_Swatch_2" y1="47.603" y2="490.266"/><path d="m416 64h-32v-8a8 8 0 0 0 -8-8h-32v-32h-16v32h-32a8 8 0 0 0 -8 8v8h-64v-8a8 8 0 0 0 -8-8h-32v-32h-16v32h-32a8 8 0 0 0 -8 8v8h-32a8 8 0 0 0 -8 8v408a8 8 0 0 0 8 8h320a8 8 0 0 0 8-8v-408a8 8 0 0 0 -8-8zm-112 0h64v8a8.009 8.009 0 0 1 -8 8h-48a8.009 8.009 0 0 1 -8-8zm-160 0h64v8a8.009 8.009 0 0 1 -8 8h-48a8.009 8.009 0 0 1 -8-8zm264 408h-304v-392h25.376a24.039 24.039 0 0 0 22.624 16h48a24.039 24.039 0 0 0 22.624-16h66.752a24.039 24.039 0 0 0 22.624 16h48a24.039 24.039 0 0 0 22.624-16h25.376z" fill="url(#New_Gradient_Swatch_2)"/><g fill="url(#New_Gradient_Swatch_2-2)"><path d="m120 136h16v16h-16z"/><path d="m120 216h16v16h-16z"/><path d="m120 256h16v16h-16z"/><path d="m120 296h16v16h-16z"/><path d="m120 336h16v16h-16z"/><path d="m120 416h16v16h-16z"/></g><path d="m360 120h-16v56h-176v-56h-16v56h-32v16h32v184h-32v16h32v56h16v-56h176v56h16v-56h32v-16h-32v-184h32v-16h-32zm-16 256h-176v-184h176z" fill="url(#New_Gradient_Swatch_2)"/><path d="m376 136h16v16h-16z" fill="url(#New_Gradient_Swatch_2-9)"/><path d="m376 216h16v16h-16z" fill="url(#New_Gradient_Swatch_2-9)"/><path d="m376 256h16v16h-16z" fill="url(#New_Gradient_Swatch_2-9)"/><path d="m376 296h16v16h-16z" fill="url(#New_Gradient_Swatch_2-9)"/><path d="m376 336h16v16h-16z" fill="url(#New_Gradient_Swatch_2-9)"/><path d="m376 416h16v16h-16z" fill="url(#New_Gradient_Swatch_2-9)"/><path d="m228.122 327a8 8 0 0 0 8.118-.213l64-40a8 8 0 0 0 0-13.568l-64-40a8 8 0 0 0 -12.24 6.781v80a8 8 0 0 0 4.122 7zm11.878-72.566 40.906 25.566-40.906 25.566z" fill="url(#New_Gradient_Swatch_2-15)"/></svg>